ffmpeg version 4.2.7-0ubuntu0.1 Copyright (c) 2000-2022 the FFmpeg developers
  built with gcc 9 (Ubuntu 9.4.0-1ubuntu1~20.04.1)
  configuration: --prefix=/usr --extra-version=0ubuntu0.1 --toolchain=hardened --libdir=/usr/lib/x86_64-linux-gnu --incdir=/usr/include/x86_64-linux-gnu --arch=amd64 --enable-gpl --disable-stripping --enable-avresample --disable-filter=resample --enable-avisynth --enable-gnutls --enable-ladspa --enable-libaom --enable-libass --enable-libbluray --enable-libbs2b --enable-libcaca --enable-libcdio --enable-libcodec2 --enable-libflite --enable-libfontconfig --enable-libfreetype --enable-libfribidi --enable-libgme --enable-libgsm --enable-libjack --enable-libmp3lame --enable-libmysofa --enable-libopenjpeg --enable-libopenmpt --enable-libopus --enable-libpulse --enable-librsvg --enable-librubberband --enable-libshine --enable-libsnappy --enable-libsoxr --enable-libspeex --enable-libssh --enable-libtheora --enable-libtwolame --enable-libvidstab --enable-libvorbis --enable-libvpx --enable-libwavpack --enable-libwebp --enable-libx265 --enable-libxml2 --enable-libxvid --enable-libzmq --enable-libzvbi --enable-lv2 --enable-omx --enable-openal --enable-opencl --enable-opengl --enable-sdl2 --enable-libdc1394 --enable-libdrm --enable-libiec61883 --enable-nvenc --enable-chromaprint --enable-frei0r --enable-libx264 --enable-shared
  libavutil      56. 31.100 / 56. 31.100
  libavcodec     58. 54.100 / 58. 54.100
  libavformat    58. 29.100 / 58. 29.100
  libavdevice    58.  8.100 / 58.  8.100
  libavfilter     7. 57.100 /  7. 57.100
  libavresample   4.  0.  0 /  4.  0.  0
  libswscale      5.  5.100 /  5.  5.100
  libswresample   3.  5.100 /  3.  5.100
  libpostproc    55.  5.100 / 55.  5.100
Routing option strict to both codec and muxer layer
[h264 @ 0x5623d8b6e9c0] Reinit context to 1280x720, pix_fmt: yuv420p
Input #0, mov,mp4,m4a,3gp,3g2,mj2, from '/var/www/html/project/media/video/original/ah194aa_58991_Sb7FJRS.mp4':
  Metadata:
    major_brand     : mp42
    minor_version   : 1
    compatible_brands: isommp41mp42
    creation_time   : 2024-04-06T09:05:52.000000Z
  Duration: 00:00:36.88, start: 0.000000, bitrate: 4144 kb/s
    Stream #0:0(eng): Audio: aac (LC) (mp4a / 0x6134706D), 44100 Hz, stereo, fltp, 125 kb/s (default)
    Metadata:
      creation_time   : 2024-04-06T09:05:52.000000Z
      handler_name    : Core Media Audio
    Stream #0:1(und): Video: h264 (High), 1 reference frame (avc1 / 0x31637661), yuv420p(tv, bt709, progressive, left), 1280x720 [SAR 1:1 DAR 16:9], 3992 kb/s, 25 fps, 25 tbr, 25k tbn, 50k tbc (default)
    Metadata:
      creation_time   : 2024-04-06T09:05:53.000000Z
      handler_name    : Core Media Video
Input #1, png_pipe, from '/var/www/html/project/static/images/templates/logo.png':
  Duration: N/A, bitrate: N/A
    Stream #1:0: Video: png, 1 reference frame, rgba(pc), 1920x1080 [SAR 2835:2835 DAR 16:9], 25 tbr, 25 tbn, 25 tbc
[Parsed_scale_0 @ 0x5623d8b83400] w:1280 h:720 flags:'bilinear' interl:0
[Parsed_scale_2 @ 0x5623d8bb37c0] w:1280 h:720 flags:'bilinear' interl:0
Stream mapping:
  Stream #0:1 (h264) -> scale (graph 0)
  Stream #1:0 (png) -> scale (graph 0)
  overlay (graph 0) -> Stream #0:0 (libx264)
  Stream #0:0 -> #0:1 (aac (native) -> aac (native))
Press [q] to stop, [?] for help
[graph_1_in_0_0 @ 0x5623d8bc0680] tb:1/44100 samplefmt:fltp samplerate:44100 chlayout:0x3
[h264 @ 0x5623d8b7dcc0] Reinit context to 1280x720, pix_fmt: yuv420p
[Parsed_scale_0 @ 0x5623d8be3fc0] w:1280 h:720 flags:'bilinear' interl:0
[Parsed_scale_2 @ 0x5623d90166c0] w:1280 h:720 flags:'bilinear' interl:0
[graph 0 input from stream 0:1 @ 0x5623d8be8580] w:1280 h:720 pixfmt:yuv420p tb:1/25000 fr:25/1 sar:1/1 sws_param:flags=2
[graph 0 input from stream 1:0 @ 0x5623d8be94c0] w:1920 h:1080 pixfmt:rgba tb:1/25 fr:25/1 sar:2835/2835 sws_param:flags=2
[Parsed_scale_0 @ 0x5623d8be3fc0] w:1280 h:720 fmt:yuv420p sar:1/1 -> w:1280 h:720 fmt:yuv420p sar:1/1 flags:0x2
[Parsed_setsar_1 @ 0x5623d9580100] w:1280 h:720 sar:1/1 dar:16/9 -> sar:1/1 dar:16/9
[Parsed_scale_2 @ 0x5623d90166c0] w:1920 h:1080 fmt:rgba sar:2835/2835 -> w:1280 h:720 fmt:yuva420p sar:1/1 flags:0x2
[Parsed_setsar_3 @ 0x5623d8be6dc0] w:1280 h:720 sar:1/1 dar:16/9 -> sar:1/1 dar:16/9
[Parsed_overlay_4 @ 0x5623d8be7840] main w:1280 h:720 fmt:yuv420p overlay w:1280 h:720 fmt:yuva420p
[Parsed_overlay_4 @ 0x5623d8be7840] [framesync @ 0x5623d8be79a8] Selected 1/25000 time base
[Parsed_overlay_4 @ 0x5623d8be7840] [framesync @ 0x5623d8be79a8] Sync level 2
[libx264 @ 0x5623d8bccd40] using SAR=1/1
[libx264 @ 0x5623d8bccd40] using cpu capabilities: MMX2 SSE2Fast SSSE3 SSE4.2 AVX FMA3 BMI2 AVX2
[libx264 @ 0x5623d8bccd40] profile High, level 3.1
[libx264 @ 0x5623d8bccd40] 264 - core 155 r2917 0a84d98 - H.264/MPEG-4 AVC codec - Copyleft 2003-2018 - http://www.videolan.org/x264.html - options: cabac=1 ref=1 deblock=1:0:0 analyse=0x3:0x113 me=hex subme=2 psy=1 psy_rd=1.00:0.00 mixed_ref=0 me_range=16 chroma_me=1 trellis=0 8x8dct=1 cqm=0 deadzone=21,11 fast_pskip=1 chroma_qp_offset=0 threads=22 lookahead_threads=5 sliced_threads=0 nr=0 decimate=1 interlaced=0 bluray_compat=0 constrained_intra=0 bframes=3 b_pyramid=2 b_adapt=1 b_bias=0 direct=1 weightb=1 open_gop=0 weightp=1 keyint=250 keyint_min=25 scenecut=40 intra_refresh=0 rc_lookahead=10 rc=crf mbtree=1 crf=18.0 qcomp=0.60 qpmin=0 qpmax=69 qpstep=4 ip_ratio=1.40 aq=1:1.00
Output #0, mp4, to '/var/www/html/project/media/video/watermarks/ah194aa_58991_Sb7FJRS.mp4':
  Metadata:
    major_brand     : mp42
    minor_version   : 1
    compatible_brands: isommp41mp42
    encoder         : Lavf58.29.100
    Stream #0:0: Video: h264 (libx264), 1 reference frame (avc1 / 0x31637661), yuv420p, 1280x720 [SAR 1:1 DAR 16:9], q=-1--1, 25 fps, 12800 tbn, 25 tbc (default)
    Metadata:
      encoder         : Lavc58.54.100 libx264
    Side data:
      cpb: bitrate max/min/avg: 0/0/0 buffer size: 0 vbv_delay: -1
    Stream #0:1(eng): Audio: aac (LC) (mp4a / 0x6134706D), 44100 Hz, stereo, fltp, delay 1024, 128 kb/s (default)
    Metadata:
      creation_time   : 2024-04-06T09:05:52.000000Z
      handler_name    : Core Media Audio
      encoder         : Lavc58.54.100 aac
[Parsed_overlay_4 @ 0x5623d8be7840] [framesync @ 0x5623d8be79a8] Sync level 0
No more output streams to write to, finishing.
frame=  922 fps= 82 q=-1.0 Lsize=   12511kB time=00:00:36.89 bitrate=2777.8kbits/s speed=3.29x    
[AVIOContext @ 0x5623d8b6b0c0] Statistics: 0 seeks, 22 writeouts
video:11908kB audio:572kB subtitle:0kB other streams:0kB global headers:0kB muxing overhead: 0.251984%
Input file #0 (/var/www/html/project/media/video/original/ah194aa_58991_Sb7FJRS.mp4):
  Input stream #0:0 (audio): 1591 packets read (579772 bytes); 1589 frames decoded (1627072 samples); 
  Input stream #0:1 (video): 922 packets read (18403142 bytes); 922 frames decoded; 
  Total: 2513 packets (18982914 bytes) demuxed
Input file #1 (/var/www/html/project/static/images/templates/logo.png):
  Input stream #1:0 (video): 1 packets read (111578 bytes); 1 frames decoded; 
  Total: 1 packets (111578 bytes) demuxed
Output file #0 (/var/www/html/project/media/video/watermarks/ah194aa_58991_Sb7FJRS.mp4):
  Output stream #0:0 (video): 922 frames encoded; 922 packets muxed (12193383 bytes); 
  Output stream #0:1 (audio): 1589 frames encoded (1627072 samples); 1590 packets muxed (585589 bytes); 
  Total: 2512 packets (12778972 bytes) muxed
[AVIOContext @ 0x5623d8bcd580] Statistics: 2 seeks, 52 writeouts
[libx264 @ 0x5623d8bccd40] frame I:5     Avg QP:12.09  size: 63363
[libx264 @ 0x5623d8bccd40] frame P:332   Avg QP:15.91  size: 22107
[libx264 @ 0x5623d8bccd40] frame B:585   Avg QP:18.90  size:  7755
[libx264 @ 0x5623d8bccd40] consecutive B-frames:  2.6% 38.0%  1.3% 58.1%
[libx264 @ 0x5623d8bccd40] mb I  I16..4: 30.2% 21.1% 48.7%
[libx264 @ 0x5623d8bccd40] mb P  I16..4: 14.6% 17.7%  5.1%  P16..4: 24.8% 15.1%  8.7%  0.0%  0.0%    skip:13.9%
[libx264 @ 0x5623d8bccd40] mb B  I16..4:  2.9%  3.9%  0.5%  B16..8: 26.6%  8.9%  0.9%  direct:16.5%  skip:39.7%  L0:42.3% L1:44.1% BI:13.6%
[libx264 @ 0x5623d8bccd40] 8x8 transform intra:48.2% inter:31.5%
[libx264 @ 0x5623d8bccd40] coded y,uvDC,uvAC intra: 40.0% 44.6% 10.7% inter: 10.9% 37.2% 1.3%
[libx264 @ 0x5623d8bccd40] i16 v,h,dc,p: 58% 25%  9%  7%
[libx264 @ 0x5623d8bccd40] i8 v,h,dc,ddl,ddr,vr,hd,vl,hu: 27% 34% 21%  3%  3%  3%  4%  3%  3%
[libx264 @ 0x5623d8bccd40] i4 v,h,dc,ddl,ddr,vr,hd,vl,hu: 30% 25% 15%  4%  6%  6%  6%  4%  4%
[libx264 @ 0x5623d8bccd40] i8c dc,h,v,p: 57% 21% 18%  4%
[libx264 @ 0x5623d8bccd40] Weighted P-Frames: Y:0.9% UV:0.3%
[libx264 @ 0x5623d8bccd40] kb/s:2644.84
[aac @ 0x5623d8b81140] Qavg: 1543.154
[AVIOContext @ 0x5623d8b74040] Statistics: 61599653 bytes read, 1824 seeks
[AVIOContext @ 0x5623d8b99f40] Statistics: 111578 bytes read, 0 seeks
